# xmcd
#
# Track frame offsets:
#	150
#	19672
#	37275
#	52029
#	68396
#	81690
#	97186
#	111768
#	126727
#	146865
#	160544
#	175275
#	191888
#	210445
#	226829
#	242656
#
# Disc length: 3547 seconds
#
# Revision: 4
# Processed by: cddbd v1.5.2PL0 Copyright (c) Steve Scherf et al.
# Submitted via: EasyCDDAExtractor 11.1.0.1
#
DISCID=ec0dd910
DTITLE=Various Artist - The Very Best Of Rosanne Cash
DYEAR=2005
DGENRE=Country
TTITLE0=Rosanne Cash - The Wheel
TTITLE1=Rosanne Cash - The Way We Make A Broken Heart
TTITLE2=Rosanne Cash - Seven Year Ache
TTITLE3=Rosanne Cash - Hold On
TTITLE4=Rosanne Cash - On The Surface
TTITLE5=Rosanne Cash with Bobby Bare - No Memories Hangin' Around
TTITLE6=Rosanne Cash - My Baby Thinks He's A Train
TTITLE7=Rosanne Cash - I Don't Know Why You Don't Want Me
TTITLE8=Rosanne Cash - Blue Moon With Heartache
TTITLE9=Rosanne Cash - Western Wall
TTITLE10=Rosanne Cash - Tennessee Flat Top Box
TTITLE11=Rosanne Cash featuring Johnny Cash - September When It Comes
TTITLE12=Rosanne Cash - Sleeping in Paris
TTITLE13=Rosanne Cash - Never Be You (alternate)
TTITLE14=Rosanne Cash - What We Really Want
TTITLE15=Rosanne Cash - Seventh Avenue
EXTD=
EXTT0=
EXTT1=
EXTT2=
EXTT3=
EXTT4=
EXTT5=
EXTT6=
EXTT7=
EXTT8=
EXTT9=
EXTT10=
EXTT11=
EXTT12=
EXTT13=
EXTT14=
EXTT15=
PLAYORDER=
